# Blender v2.76 (sub 0) OBJ File: 'house1.blend'
# www.blender.org
mtllib house1.mtl
o Cube
v 0.223511 -0.053610 -0.223511
v 0.223511 -0.053610 0.223511
v -0.223511 -0.053610 0.223511
v -0.223511 -0.053610 -0.223511
v -0.081437 0.620889 -0.223511
v -0.081437 0.458016 -0.223511
v -0.223511 0.718855 -0.223511
v 0.223511 0.718855 -0.223511
v 0.081437 0.620889 -0.223511
v 0.081437 0.458016 -0.223511
v 0.223511 0.620889 -0.081437
v 0.223511 0.458016 -0.081437
v 0.223511 0.458016 0.081437
v -0.081437 0.458016 0.223511
v 0.223511 0.718855 0.223511
v 0.081437 0.620889 0.223511
v 0.081437 0.458016 0.223511
v -0.081437 0.620889 0.223511
v -0.223511 0.718855 0.223511
v -0.223511 0.458016 0.081437
v -0.223511 0.458016 -0.081437
v -0.223511 0.620889 -0.081437
v 0.223511 0.620889 0.081437
v 0.081437 0.620889 -0.081437
v 0.081437 0.458016 -0.081437
v -0.081437 0.458016 -0.081437
v -0.081437 0.620889 -0.081437
v -0.223511 0.620889 0.081437
v -0.081437 0.620889 0.081437
v -0.081437 0.458016 0.081437
v 0.081437 0.458016 0.081437
v 0.081437 0.620889 0.081437
vn 0.000000 -1.000000 0.000000
vn 0.000000 0.000000 -1.000000
vn 1.000000 -0.000000 0.000000
vn -0.000000 -0.000000 1.000000
vn -1.000000 -0.000000 -0.000000
vn 0.000000 1.000000 0.000000
vn 0.866700 -0.498900 0.000000
vn 0.978700 0.205300 0.000000
vn -0.978700 0.205300 -0.000000
usemtl Material
s off
f 1//1 2//1 3//1
f 5//2 7//2 9//2
f 10//2 8//2 1//2
f 1//3 12//3 13//3
f 15//4 16//4 17//4
f 18//4 19//4 14//4
f 21//5 7//5 4//5
f 7//6 19//6 15//6
f 23//3 8//3 15//3
f 21//4 12//4 25//4
f 21//6 20//6 13//6
f 19//5 22//5 28//5
f 13//4 20//4 30//4
f 23//1 32//1 24//1
f 29//1 28//1 22//1
f 29//7 27//7 5//7
f 9//1 16//1 18//1
f 25//6 10//6 6//6
f 14//6 17//6 31//6
f 24//5 32//5 16//5
f 4//1 1//1 3//1
f 5//2 6//2 7//2
f 8//2 9//2 7//2
f 6//2 4//2 7//2
f 4//2 6//2 10//2
f 10//2 9//2 8//2
f 1//2 4//2 10//2
f 1//3 8//3 12//3
f 13//3 2//3 1//3
f 8//3 11//3 12//3
f 17//4 14//4 3//4
f 2//4 15//4 17//4
f 17//4 3//4 2//4
f 18//4 16//4 15//4
f 3//4 14//4 19//4
f 18//4 15//4 19//4
f 4//5 3//5 20//5
f 21//5 22//5 7//5
f 4//5 20//5 21//5
f 8//6 7//6 15//6
f 15//3 2//3 13//3
f 23//3 11//3 8//3
f 15//3 13//3 23//3
f 27//4 22//4 21//4
f 12//4 11//4 24//4
f 26//4 27//4 21//4
f 12//4 24//4 25//4
f 25//4 26//4 21//4
f 12//6 21//6 13//6
f 20//5 3//5 19//5
f 19//5 7//5 22//5
f 28//5 20//5 19//5
f 32//2 23//2 13//2
f 20//2 28//2 29//2
f 31//2 32//2 13//2
f 20//2 29//2 30//2
f 30//4 31//4 13//4
f 11//1 23//1 24//1
f 27//1 29//1 22//1
f 18//3 14//3 29//3
f 26//3 6//3 27//3
f 14//3 30//3 29//3
f 27//3 6//3 5//3
f 5//8 18//8 29//8
f 5//1 9//1 18//1
f 26//6 25//6 6//6
f 30//6 14//6 31//6
f 9//5 10//5 25//5
f 31//5 17//5 32//5
f 9//5 25//5 24//5
f 32//5 17//5 16//5
f 16//9 9//9 24//9
