# Blender v2.76 (sub 0) OBJ File: 'house1.blend'
# www.blender.org
mtllib house1.mtl
o Cube.004
v 0.001673 0.858105 0.242260
v 0.002414 0.858981 0.242260
v 0.002414 0.858981 -0.241910
v 0.001673 0.858105 -0.241910
v 0.249933 0.715493 0.242260
v 0.025594 0.829821 0.242260
v 0.001673 0.815954 0.242260
v 0.225271 0.686333 0.242260
v 0.249933 0.715493 -0.241910
v 0.225271 0.686333 -0.241910
v 0.001673 0.815954 -0.241910
v 0.025594 0.829821 -0.241910
v -0.022248 0.829821 -0.241910
v -0.022248 0.829821 0.242260
v -0.246588 0.715493 0.242260
v -0.246588 0.715493 -0.241910
v -0.221926 0.686333 -0.241910
v -0.221926 0.686333 0.242260
v 0.000932 0.858981 0.242260
v 0.000932 0.858981 -0.241910
vn -0.763600 0.645700 0.000000
vn 0.000000 0.000000 1.000000
vn 0.501500 0.865100 0.000000
vn -0.000000 0.000000 -1.000000
vn 0.763500 -0.645800 0.000000
vn -0.501500 -0.865100 0.000000
vn -0.763500 -0.645800 0.000000
vn -0.501500 0.865100 0.000000
vn 0.501500 -0.865100 0.000000
vn 0.763500 0.645800 0.000000
usemtl Material.002
s off
f 2//1 3//1 4//1
f 2//2 6//2 5//2
f 9//3 3//3 2//3
f 10//4 11//4 12//4
f 5//5 8//5 10//5
f 10//6 8//6 7//6
f 11//4 13//4 4//4
f 1//2 14//2 7//2
f 16//7 17//7 18//7
f 18//2 7//2 14//2
f 20//8 16//8 15//8
f 20//4 13//4 16//4
f 18//9 17//9 11//9
f 20//10 19//10 1//10
f 1//1 2//1 4//1
f 8//2 5//2 6//2
f 2//2 1//2 6//2
f 6//2 7//2 8//2
f 5//3 9//3 2//3
f 4//4 3//4 12//4
f 9//4 10//4 12//4
f 12//4 3//4 9//4
f 9//5 5//5 10//5
f 11//6 10//6 7//6
f 12//4 11//4 4//4
f 6//2 1//2 7//2
f 15//7 16//7 18//7
f 1//2 19//2 14//2
f 15//2 18//2 14//2
f 14//2 19//2 15//2
f 19//8 20//8 15//8
f 17//4 16//4 13//4
f 20//4 4//4 13//4
f 13//4 11//4 17//4
f 7//9 18//9 11//9
f 4//10 20//10 1//10
o Cube.001_Cube.005
v -0.196223 0.718322 0.225092
v -0.000759 0.816103 0.225092
v -0.196223 0.718322 -0.225394
v -0.000759 0.816103 -0.225394
v 0.194704 0.718322 0.225092
v 0.194704 0.718322 -0.225394
vn -0.447400 0.894300 0.000000
vn 0.000000 -1.000000 0.000000
vn 0.000000 0.000000 -1.000000
vn 0.447400 0.894300 0.000000
vn 0.000000 0.000000 1.000000
usemtl Material.001
s off
f 24//11 23//11 21//11
f 23//12 26//12 25//12
f 24//13 26//13 23//13
f 22//14 25//14 26//14
f 22//15 21//15 25//15
f 22//11 24//11 21//11
f 21//12 23//12 25//12
f 24//14 22//14 26//14
o Cube
v 0.223511 -0.044007 -0.223511
v 0.223511 -0.044007 0.223511
v -0.223511 -0.044007 0.223511
v -0.223511 -0.044007 -0.223511
v -0.081437 0.630492 -0.223511
v -0.081437 0.467619 -0.223511
v -0.223511 0.728459 -0.223511
v 0.223511 0.728459 -0.223511
v 0.081437 0.630492 -0.223511
v 0.081437 0.467619 -0.223511
v 0.223511 0.630492 -0.081437
v 0.223511 0.467619 -0.081437
v 0.223511 0.467619 0.081437
v -0.081437 0.467619 0.223511
v 0.223511 0.728459 0.223511
v 0.081437 0.630492 0.223511
v 0.081437 0.467619 0.223511
v -0.081437 0.630492 0.223511
v -0.223511 0.728459 0.223511
v -0.223511 0.467619 0.081437
v -0.223511 0.467619 -0.081437
v -0.223511 0.630492 -0.081437
v 0.223511 0.630492 0.081437
v 0.081437 0.630492 -0.081437
v 0.081437 0.467619 -0.081437
v -0.081437 0.467619 -0.081437
v -0.081437 0.630492 -0.081437
v -0.223511 0.630492 0.081437
v -0.081437 0.630492 0.081437
v -0.081437 0.467619 0.081437
v 0.081437 0.467619 0.081437
v 0.081437 0.630492 0.081437
vn 0.000000 -1.000000 -0.000000
vn 0.000000 0.000000 -1.000000
vn 1.000000 -0.000000 0.000000
vn -0.000000 -0.000000 1.000000
vn -1.000000 -0.000000 -0.000000
vn 0.000000 1.000000 -0.000000
vn 0.982100 0.188400 0.000000
vn -0.793300 0.608800 -0.000000
vn 0.978700 -0.205300 0.000000
vn -0.978700 -0.205300 0.000000
usemtl Material
s off
f 28//16 29//16 30//16
f 31//17 33//17 34//17
f 36//17 34//17 27//17
f 27//18 38//18 39//18
f 41//19 42//19 43//19
f 44//19 45//19 40//19
f 47//20 33//20 30//20
f 33//21 45//21 41//21
f 49//18 34//18 41//18
f 47//19 38//19 51//19
f 47//21 46//21 39//21
f 45//20 48//20 54//20
f 39//17 46//17 56//17
f 49//16 58//16 50//16
f 54//16 48//16 53//16
f 55//22 53//22 31//22
f 35//16 42//16 44//16
f 51//21 36//21 32//21
f 40//21 43//21 57//21
f 50//23 58//23 42//23
f 27//16 28//16 30//16
f 31//17 32//17 33//17
f 34//17 35//17 31//17
f 32//17 30//17 33//17
f 30//17 32//17 36//17
f 36//17 35//17 34//17
f 27//17 30//17 36//17
f 27//18 34//18 38//18
f 39//18 28//18 27//18
f 34//18 37//18 38//18
f 43//19 40//19 29//19
f 28//19 41//19 43//19
f 43//19 29//19 28//19
f 44//19 42//19 41//19
f 29//19 40//19 45//19
f 44//19 41//19 45//19
f 30//20 29//20 46//20
f 47//20 48//20 33//20
f 30//20 46//20 47//20
f 34//21 33//21 41//21
f 41//18 28//18 39//18
f 49//18 37//18 34//18
f 41//18 39//18 49//18
f 53//19 48//19 47//19
f 38//19 37//19 50//19
f 52//19 53//19 47//19
f 38//19 50//19 51//19
f 51//17 52//17 47//17
f 38//21 47//21 39//21
f 46//20 29//20 45//20
f 45//20 33//20 48//20
f 54//20 46//20 45//20
f 58//17 49//17 39//17
f 46//17 54//17 55//17
f 57//17 58//17 39//17
f 46//17 55//17 56//17
f 56//19 57//19 39//19
f 37//16 49//16 50//16
f 55//16 54//16 53//16
f 44//18 40//18 55//18
f 52//18 32//18 53//18
f 40//18 56//18 55//18
f 53//18 32//18 31//18
f 31//24 44//24 55//24
f 31//16 35//16 44//16
f 52//21 51//21 32//21
f 56//21 40//21 57//21
f 35//20 36//20 51//20
f 57//20 43//20 58//20
f 35//20 51//20 50//20
f 58//20 43//20 42//20
f 42//25 35//25 50//25
