# Blender v2.79 (sub 0) OBJ File: 'house4.blend'
# www.blender.org
mtllib house4.mtl
o house_roof
v -0.219422 1.187926 0.242260
v -0.218681 1.188802 0.242260
v -0.218681 1.188802 -0.241910
v -0.219422 1.187926 -0.241910
v 0.028839 1.045314 0.242260
v -0.195501 1.159643 0.242260
v -0.219422 1.145776 0.242260
v 0.004177 1.016155 0.242260
v 0.028839 1.045314 -0.241910
v 0.004177 1.016155 -0.241910
v -0.219422 1.145776 -0.241910
v -0.195501 1.159643 -0.241910
v -0.243343 1.159643 -0.241910
v -0.243343 1.159643 0.242260
v -0.467682 1.045314 0.242260
v -0.467682 1.045314 -0.241910
v -0.443020 1.016155 -0.241910
v -0.443020 1.016155 0.242260
v -0.220163 1.188802 0.242260
v -0.220163 1.188802 -0.241910
vn -0.7635 0.6458 0.0000
vn 0.0000 0.0000 1.0000
vn 0.5015 0.8651 0.0000
vn 0.0000 0.0000 -1.0000
vn 0.7635 -0.6458 0.0000
vn -0.5015 -0.8651 0.0000
vn -0.7635 -0.6458 0.0000
vn -0.5015 0.8651 0.0000
vn 0.5015 -0.8651 0.0000
vn 0.7635 0.6458 0.0000
usemtl Material.002
s off
f 1//1 2//1 3//1 4//1
f 5//2 2//2 1//2 6//2 7//2 8//2
f 5//3 9//3 3//3 2//3
f 3//4 9//4 10//4 11//4 12//4 4//4
f 9//5 5//5 8//5 10//5
f 11//6 10//6 8//6 7//6
f 11//4 13//4 4//4 12//4
f 1//2 14//2 7//2 6//2
f 15//7 16//7 17//7 18//7
f 19//2 15//2 18//2 7//2 14//2 1//2
f 19//8 20//8 16//8 15//8
f 16//4 20//4 4//4 13//4 11//4 17//4
f 7//9 18//9 17//9 11//9
f 4//10 20//10 19//10 1//10
o base.001_Cube.010
v 0.445933 -0.006634 0.221047
v 0.445933 0.286821 0.221047
v 0.445933 -0.006634 -0.225975
v 0.445933 0.286821 -0.225975
v 0.892955 -0.006634 0.221047
v 0.892955 0.286821 0.221047
v 0.892955 -0.006634 -0.225975
v 0.892955 0.286821 -0.225975
vn -1.0000 0.0000 0.0000
vn 0.0000 0.0000 -1.0000
vn 1.0000 0.0000 0.0000
vn 0.0000 0.0000 1.0000
vn 0.0000 -1.0000 0.0000
vn 0.0000 1.0000 0.0000
usemtl None
s off
f 21//11 22//11 24//11 23//11
f 23//12 24//12 28//12 27//12
f 27//13 28//13 26//13 25//13
f 25//14 26//14 22//14 21//14
f 23//15 27//15 25//15 21//15
f 28//16 24//16 22//16 26//16
o house.003_roof.003
v 0.670130 1.190425 0.239215
v 0.670871 1.191301 0.239215
v 0.670871 1.191301 -0.244955
v 0.670130 1.190425 -0.244955
v 0.918390 1.047813 0.239215
v 0.694051 1.162141 0.239215
v 0.670130 1.148274 0.239215
v 0.893728 1.018654 0.239215
v 0.918390 1.047813 -0.244955
v 0.893728 1.018654 -0.244955
v 0.670130 1.148274 -0.244955
v 0.694051 1.162141 -0.244955
v 0.646209 1.162141 -0.244955
v 0.646209 1.162141 0.239215
v 0.421870 1.047813 0.239215
v 0.421870 1.047813 -0.244955
v 0.446532 1.018653 -0.244955
v 0.446532 1.018653 0.239215
v 0.669389 1.191301 0.239215
v 0.669389 1.191301 -0.244955
vn -0.7636 0.6457 0.0000
vn -0.0000 0.0000 1.0000
vn 0.5015 0.8651 0.0000
vn 0.0000 0.0000 -1.0000
vn 0.7635 -0.6458 0.0000
vn -0.5015 -0.8651 0.0000
vn -0.7635 -0.6458 0.0000
vn -0.5015 0.8651 0.0000
vn 0.5015 -0.8651 0.0000
vn 0.7636 0.6457 0.0000
usemtl Material.002
s off
f 29//17 30//17 31//17 32//17
f 33//18 30//18 29//18 34//18 35//18 36//18
f 33//19 37//19 31//19 30//19
f 31//20 37//20 38//20 39//20 40//20 32//20
f 37//21 33//21 36//21 38//21
f 39//22 38//22 36//22 35//22
f 39//20 41//20 32//20 40//20
f 29//18 42//18 35//18 34//18
f 43//23 44//23 45//23 46//23
f 47//18 43//18 46//18 35//18 42//18 29//18
f 47//24 48//24 44//24 43//24
f 44//20 48//20 32//20 41//20 39//20 45//20
f 35//25 46//25 45//25 39//25
f 32//26 48//26 47//26 29//26
o roofpanel.003_Cube.009
v 0.472235 1.045738 0.222048
v 0.667698 1.143519 0.222048
v 0.472235 1.045738 -0.228439
v 0.667698 1.143519 -0.228439
v 0.863162 1.045738 0.222048
v 0.863162 1.045738 -0.228439
vn -0.4474 0.8943 0.0000
vn 0.0000 -1.0000 0.0000
vn 0.0000 0.0000 -1.0000
vn 0.4474 0.8943 0.0000
vn -0.0000 0.0000 1.0000
usemtl Material.001
s off
f 50//27 52//27 51//27 49//27
f 49//28 51//28 54//28 53//28
f 52//29 54//29 51//29
f 52//30 50//30 53//30 54//30
f 50//31 49//31 53//31
o body.003_Cube.008
v 0.891968 0.283248 -0.226556
v 0.891968 0.283248 0.220467
v 0.444946 0.283248 0.220467
v 0.444946 0.283248 -0.226556
v 0.587021 0.957746 -0.226556
v 0.587021 0.794873 -0.226556
v 0.444946 1.055713 -0.226556
v 0.891969 1.055713 -0.226556
v 0.749894 0.957746 -0.226556
v 0.749894 0.794873 -0.226556
v 0.891968 0.957746 -0.084481
v 0.891968 0.794873 -0.084481
v 0.891968 0.794873 0.078392
v 0.587021 0.794873 0.220467
v 0.891968 1.055713 0.220467
v 0.749894 0.957746 0.220467
v 0.749894 0.794873 0.220467
v 0.587021 0.957746 0.220467
v 0.444946 1.055713 0.220466
v 0.444946 0.794873 0.078392
v 0.444946 0.794873 -0.084481
v 0.444946 0.957746 -0.084481
v 0.891968 0.957746 0.078392
v 0.749894 0.957746 -0.084481
v 0.749894 0.794873 -0.084481
v 0.587021 0.794873 -0.084481
v 0.587021 0.957746 -0.084481
v 0.444946 0.957746 0.078392
v 0.587021 0.957746 0.078392
v 0.587021 0.794873 0.078392
v 0.749894 0.794873 0.078392
v 0.749894 0.957746 0.078392
vn 0.0000 -1.0000 0.0000
vn 0.0000 0.0000 -1.0000
vn 1.0000 -0.0000 0.0000
vn -0.0000 -0.0000 1.0000
vn -1.0000 -0.0000 -0.0000
vn -0.0000 1.0000 0.0000
usemtl housemat
s off
f 55//32 56//32 57//32 58//32
f 59//33 60//33 58//33 61//33 62//33 63//33
f 60//33 64//33 63//33 62//33 55//33 58//33
f 55//34 62//34 65//34 66//34 67//34 56//34
f 68//35 57//35 56//35 69//35 70//35 71//35
f 72//35 70//35 69//35 73//35 57//35 68//35
f 57//36 74//36 75//36 76//36 61//36 58//36
f 62//37 61//37 73//37 69//37
f 56//34 67//34 77//34 65//34 62//34 69//34
f 76//35 75//35 66//35 65//35 78//35 79//35 80//35 81//35
f 75//37 74//37 67//37 66//37
f 57//36 73//36 61//36 76//36 82//36 74//36
f 77//33 67//33 74//33 82//33 83//33 84//33 85//33 86//33
f 65//32 77//32 86//32 78//32
f 83//32 82//32 76//32 81//32
f 72//34 68//34 84//34 83//34 81//34 80//34 60//34 59//34
f 59//32 63//32 70//32 72//32
f 80//37 79//37 64//37 60//37
f 68//37 71//37 85//37 84//37
f 63//36 64//36 79//36 78//36 86//36 85//36 71//36 70//36
o house.001_roof.001
v 0.228688 0.903557 0.242702
v 0.229429 0.904433 0.242702
v 0.229429 0.904433 -0.241468
v 0.228688 0.903557 -0.241468
v 0.476948 0.760945 0.242702
v 0.252609 0.875273 0.242702
v 0.228688 0.861406 0.242702
v 0.452286 0.731785 0.242702
v 0.476948 0.760945 -0.241468
v 0.452286 0.731785 -0.241468
v 0.228688 0.861406 -0.241468
v 0.252609 0.875273 -0.241468
v 0.204767 0.875273 -0.241468
v 0.204767 0.875273 0.242702
v -0.019572 0.760945 0.242702
v -0.019572 0.760945 -0.241468
v 0.005089 0.731785 -0.241468
v 0.005089 0.731785 0.242702
v 0.227947 0.904433 0.242702
v 0.227947 0.904433 -0.241468
vn -0.7635 0.6458 0.0000
vn 0.0000 0.0000 1.0000
vn 0.5015 0.8651 0.0000
vn 0.0000 0.0000 -1.0000
vn 0.7635 -0.6458 0.0000
vn -0.5015 -0.8651 0.0000
vn -0.7635 -0.6458 0.0000
vn -0.5015 0.8651 0.0000
vn 0.5015 -0.8651 0.0000
vn 0.7636 0.6457 0.0000
usemtl Material.002
s off
f 87//38 88//38 89//38 90//38
f 91//39 88//39 87//39 92//39 93//39 94//39
f 91//40 95//40 89//40 88//40
f 89//41 95//41 96//41 97//41 98//41 90//41
f 95//42 91//42 94//42 96//42
f 97//43 96//43 94//43 93//43
f 97//41 99//41 90//41 98//41
f 87//39 100//39 93//39 92//39
f 101//44 102//44 103//44 104//44
f 105//39 101//39 104//39 93//39 100//39 87//39
f 105//45 106//45 102//45 101//45
f 102//41 106//41 90//41 99//41 97//41 103//41
f 93//46 104//46 103//46 97//46
f 90//47 106//47 105//47 87//47
o body.001_Cube.004
v 0.450526 -0.003621 -0.223069
v 0.450526 -0.003621 0.223953
v 0.003504 -0.003621 0.223953
v 0.003504 -0.003621 -0.223069
v 0.145578 0.670878 -0.223069
v 0.145578 0.508005 -0.223069
v 0.003504 0.768844 -0.223069
v 0.450526 0.768845 -0.223069
v 0.308452 0.670878 -0.223069
v 0.308452 0.508005 -0.223069
v 0.450526 0.670878 -0.080995
v 0.450526 0.508005 -0.080995
v 0.450526 0.508005 0.081879
v 0.145578 0.508005 0.223953
v 0.450526 0.768845 0.223953
v 0.308452 0.670878 0.223953
v 0.308452 0.508005 0.223953
v 0.145578 0.670878 0.223953
v 0.003504 0.768844 0.223953
v 0.003504 0.508005 0.081879
v 0.003504 0.508005 -0.080995
v 0.003504 0.670878 -0.080995
v 0.450526 0.670878 0.081879
v 0.308452 0.670878 -0.080995
v 0.308452 0.508005 -0.080995
v 0.145578 0.508005 -0.080995
v 0.145578 0.670878 -0.080995
v 0.003504 0.670878 0.081879
v 0.145578 0.670878 0.081879
v 0.145578 0.508005 0.081879
v 0.308452 0.508005 0.081879
v 0.308452 0.670878 0.081879
vn 0.0000 -1.0000 0.0000
vn 0.0000 0.0000 -1.0000
vn 1.0000 -0.0000 0.0000
vn -0.0000 -0.0000 1.0000
vn -1.0000 -0.0000 -0.0000
vn -0.0000 1.0000 0.0000
usemtl housemat
s off
f 107//48 108//48 109//48 110//48
f 111//49 112//49 110//49 113//49 114//49 115//49
f 112//49 116//49 115//49 114//49 107//49 110//49
f 107//50 114//50 117//50 118//50 119//50 108//50
f 120//51 109//51 108//51 121//51 122//51 123//51
f 124//51 122//51 121//51 125//51 109//51 120//51
f 109//52 126//52 127//52 128//52 113//52 110//52
f 114//53 113//53 125//53 121//53
f 108//50 119//50 129//50 117//50 114//50 121//50
f 128//51 127//51 118//51 117//51 130//51 131//51 132//51 133//51
f 127//53 126//53 119//53 118//53
f 109//52 125//52 113//52 128//52 134//52 126//52
f 129//49 119//49 126//49 134//49 135//49 136//49 137//49 138//49
f 117//48 129//48 138//48 130//48
f 135//48 134//48 128//48 133//48
f 124//50 120//50 136//50 135//50 133//50 132//50 112//50 111//50
f 111//48 115//48 122//48 124//48
f 132//53 131//53 116//53 112//53
f 120//53 123//53 137//53 136//53
f 115//52 116//52 131//52 130//52 138//52 137//52 123//52 122//52
o roofpanel.001_Cube.003
v 0.030792 0.758870 0.225534
v 0.226256 0.856651 0.225534
v 0.030792 0.758870 -0.224952
v 0.226256 0.856651 -0.224952
v 0.421720 0.758870 0.225534
v 0.421720 0.758870 -0.224952
vn -0.4474 0.8943 0.0000
vn 0.0000 -1.0000 0.0000
vn 0.0000 0.0000 -1.0000
vn 0.4474 0.8943 0.0000
vn 0.0000 0.0000 1.0000
usemtl Material.001
s off
f 140//54 142//54 141//54 139//54
f 139//55 141//55 144//55 143//55
f 142//56 144//56 141//56
f 142//57 140//57 143//57 144//57
f 140//58 139//58 143//58
o base_Cube.001
v -0.444605 -0.005308 0.223511
v -0.444605 0.288147 0.223511
v -0.444605 -0.005308 -0.223511
v -0.444605 0.288147 -0.223511
v 0.002417 -0.005308 0.223511
v 0.002417 0.288147 0.223511
v 0.002417 -0.005308 -0.223511
v 0.002417 0.288147 -0.223511
vn -1.0000 0.0000 0.0000
vn 0.0000 0.0000 -1.0000
vn 1.0000 0.0000 0.0000
vn 0.0000 0.0000 1.0000
vn 0.0000 -1.0000 0.0000
vn 0.0000 1.0000 0.0000
usemtl None
s off
f 145//59 146//59 148//59 147//59
f 147//60 148//60 152//60 151//60
f 151//61 152//61 150//61 149//61
f 149//62 150//62 146//62 145//62
f 147//63 151//63 149//63 145//63
f 152//64 148//64 146//64 150//64
o roofpanel_Cube.005
v -0.417317 1.043239 0.225092
v -0.221854 1.141021 0.225092
v -0.417317 1.043239 -0.225394
v -0.221854 1.141021 -0.225394
v -0.026390 1.043239 0.225092
v -0.026390 1.043239 -0.225394
vn -0.4474 0.8943 0.0000
vn 0.0000 -1.0000 0.0000
vn 0.0000 0.0000 -1.0000
vn 0.4474 0.8943 0.0000
vn 0.0000 0.0000 1.0000
usemtl Material.001
s off
f 154//65 156//65 155//65 153//65
f 153//66 155//66 158//66 157//66
f 156//67 158//67 155//67
f 156//68 154//68 157//68 158//68
f 154//69 153//69 157//69
o body_Cube
v 0.002417 0.280749 -0.223511
v 0.002417 0.280749 0.223511
v -0.444606 0.280749 0.223511
v -0.444605 0.280749 -0.223511
v -0.302531 0.955248 -0.223511
v -0.302531 0.792374 -0.223511
v -0.444605 1.053214 -0.223511
v 0.002417 1.053214 -0.223511
v -0.139658 0.955248 -0.223511
v -0.139658 0.792374 -0.223511
v 0.002417 0.955248 -0.081437
v 0.002417 0.792374 -0.081437
v 0.002417 0.792374 0.081437
v -0.302531 0.792374 0.223511
v 0.002417 1.053214 0.223511
v -0.139658 0.955248 0.223511
v -0.139658 0.792374 0.223511
v -0.302531 0.955248 0.223511
v -0.444606 1.053214 0.223511
v -0.444606 0.792374 0.081437
v -0.444605 0.792374 -0.081437
v -0.444605 0.955248 -0.081437
v 0.002417 0.955248 0.081437
v -0.139658 0.955248 -0.081437
v -0.139658 0.792374 -0.081437
v -0.302531 0.792374 -0.081437
v -0.302531 0.955248 -0.081437
v -0.444606 0.955248 0.081437
v -0.302531 0.955248 0.081437
v -0.302531 0.792374 0.081437
v -0.139658 0.792374 0.081437
v -0.139658 0.955248 0.081437
vn 0.0000 -1.0000 0.0000
vn 0.0000 0.0000 -1.0000
vn 1.0000 -0.0000 0.0000
vn -0.0000 -0.0000 1.0000
vn -1.0000 -0.0000 -0.0000
vn 0.0000 1.0000 0.0000
usemtl housemat
s off
f 159//70 160//70 161//70 162//70
f 163//71 164//71 162//71 165//71 166//71 167//71
f 164//71 168//71 167//71 166//71 159//71 162//71
f 159//72 166//72 169//72 170//72 171//72 160//72
f 172//73 161//73 160//73 173//73 174//73 175//73
f 176//73 174//73 173//73 177//73 161//73 172//73
f 161//74 178//74 179//74 180//74 165//74 162//74
f 166//75 165//75 177//75 173//75
f 160//72 171//72 181//72 169//72 166//72 173//72
f 180//73 179//73 170//73 169//73 182//73 183//73 184//73 185//73
f 179//75 178//75 171//75 170//75
f 161//74 177//74 165//74 180//74 186//74 178//74
f 181//71 171//71 178//71 186//71 187//71 188//71 189//71 190//71
f 169//70 181//70 190//70 182//70
f 187//70 186//70 180//70 185//70
f 176//72 172//72 188//72 187//72 185//72 184//72 164//72 163//72
f 163//70 167//70 174//70 176//70
f 184//75 183//75 168//75 164//75
f 172//75 175//75 189//75 188//75
f 167//74 168//74 183//74 182//74 190//74 189//74 175//74 174//74
o house.002_roof.002
v 0.213079 0.529404 0.709370
v 0.214370 0.530280 0.709370
v 0.214370 0.530280 0.225200
v 0.213079 0.529404 0.225200
v 0.645673 0.386792 0.709370
v 0.254761 0.501120 0.709370
v 0.213079 0.487253 0.709370
v 0.602699 0.357632 0.709370
v 0.645673 0.386792 0.225200
v 0.602699 0.357632 0.225200
v 0.213079 0.487253 0.225200
v 0.254761 0.501120 0.225200
v 0.171396 0.501120 0.225200
v 0.171396 0.501120 0.709370
v -0.219515 0.386792 0.709370
v -0.219515 0.386792 0.225200
v -0.176542 0.357632 0.225200
v -0.176542 0.357632 0.709370
v 0.211788 0.530280 0.709370
v 0.211788 0.530280 0.225200
vn -0.5615 0.8275 0.0000
vn 0.0000 0.0000 1.0000
vn 0.3157 0.9489 0.0000
vn -0.0000 0.0000 -1.0000
vn 0.5615 -0.8275 0.0000
vn -0.3157 -0.9489 0.0000
vn -0.5615 -0.8275 0.0000
vn -0.3157 0.9489 0.0000
vn 0.3157 -0.9489 0.0000
vn 0.5615 0.8275 0.0000
usemtl Material.002
s off
f 191//76 192//76 193//76 194//76
f 195//77 192//77 191//77 196//77 197//77 198//77
f 195//78 199//78 193//78 192//78
f 193//79 199//79 200//79 201//79 202//79 194//79
f 199//80 195//80 198//80 200//80
f 201//81 200//81 198//81 197//81
f 201//79 203//79 194//79 202//79
f 191//77 204//77 197//77 196//77
f 205//82 206//82 207//82 208//82
f 209//77 205//77 208//77 197//77 204//77 191//77
f 209//83 210//83 206//83 205//83
f 206//79 210//79 194//79 203//79 201//79 207//79
f 197//84 208//84 207//84 201//84
f 194//85 210//85 209//85 191//85
o roofpanel.002_Cube.007
v -0.147049 0.392336 0.666559
v 0.210647 0.490118 0.666559
v -0.147049 0.392336 0.216073
v 0.210647 0.490118 0.216073
v 0.568343 0.392336 0.666559
v 0.568343 0.392336 0.216073
vn -0.2637 0.9646 0.0000
vn 0.0000 -1.0000 0.0000
vn 0.0000 0.0000 -1.0000
vn 0.2637 0.9646 0.0000
vn 0.0000 0.0000 1.0000
usemtl Material.001
s off
f 212//86 214//86 213//86 211//86
f 211//87 213//87 216//87 215//87
f 214//88 216//88 213//88
f 214//89 212//89 215//89 216//89
f 212//90 211//90 215//90
o body.002_Cube.006
v 0.590250 -0.004671 0.217956
v 0.590250 -0.004671 0.664978
v -0.167438 -0.004671 0.664978
v -0.167437 -0.004671 0.217956
v 0.073374 0.350420 0.217956
v 0.073374 0.264675 0.217956
v -0.167438 0.401995 0.217956
v 0.590250 0.401995 0.217956
v 0.349439 0.350420 0.217956
v 0.349439 0.264675 0.217956
v 0.590250 0.350420 0.360030
v 0.590250 0.264675 0.360030
v 0.590250 0.264675 0.522904
v 0.073374 0.264675 0.664978
v 0.590250 0.401995 0.664978
v 0.349439 0.350420 0.664978
v 0.349439 0.264675 0.664978
v 0.073374 0.350420 0.664978
v -0.167438 0.401995 0.664978
v -0.167438 0.264675 0.522904
v -0.167438 0.264675 0.360030
v -0.167438 0.350420 0.360030
v 0.590250 0.350420 0.522904
v 0.349439 0.350420 0.360030
v 0.349439 0.264675 0.360030
v 0.073374 0.264675 0.360030
v 0.073374 0.350420 0.360030
v -0.167438 0.350420 0.522904
v 0.073374 0.350420 0.522904
v 0.073374 0.264675 0.522904
v 0.349439 0.264675 0.522904
v 0.349439 0.350420 0.522904
vn 0.0000 -1.0000 0.0000
vn 0.0000 0.0000 -1.0000
vn 1.0000 -0.0000 0.0000
vn -0.0000 -0.0000 1.0000
vn -1.0000 -0.0000 -0.0000
vn 0.0000 1.0000 0.0000
usemtl housemat
s off
f 217//91 218//91 219//91 220//91
f 221//92 222//92 220//92 223//92 224//92 225//92
f 222//92 226//92 225//92 224//92 217//92 220//92
f 217//93 224//93 227//93 228//93 229//93 218//93
f 230//94 219//94 218//94 231//94 232//94 233//94
f 234//94 232//94 231//94 235//94 219//94 230//94
f 219//95 236//95 237//95 238//95 223//95 220//95
f 224//96 223//96 235//96 231//96
f 218//93 229//93 239//93 227//93 224//93 231//93
f 238//94 237//94 228//94 227//94 240//94 241//94 242//94 243//94
f 237//96 236//96 229//96 228//96
f 219//95 235//95 223//95 238//95 244//95 236//95
f 239//92 229//92 236//92 244//92 245//92 246//92 247//92 248//92
f 227//91 239//91 248//91 240//91
f 245//91 244//91 238//91 243//91
f 234//93 230//93 246//93 245//93 243//93 242//93 222//93 221//93
f 221//91 225//91 232//91 234//91
f 242//96 241//96 226//96 222//96
f 230//96 233//96 247//96 246//96
f 225//95 226//95 241//95 240//95 248//95 247//95 233//95 232//95
